<?xml version="1.0" standalone="no"?><!DOCTYPE svg PUBLIC "-//W3C//DTD SVG 1.1//EN" "http://www.w3.org/Graphics/SVG/1.1/DTD/svg11.dtd"><svg t="1757389123607" class="icon" viewBox="0 0 1024 1024" version="1.1" xmlns="http://www.w3.org/2000/svg" p-id="6587" xmlns:xlink="http://www.w3.org/1999/xlink" width="200" height="200"><path d="M371.24096 427.71456l201.39008 237.85472c1.86368 2.2016 5.61152 2.2016 7.4752 0l199.00416-237.85472" fill="#C4D7D3" p-id="6588"></path><path d="M322.78528 117.94432c-97.08544 0-175.79008 78.70464-175.79008 175.79008 0 97.08544 78.70464 175.79008 175.79008 175.79008l50.18624-50.18624-101.67296-105.00096 15.4624-4.864 188.40576 7.66976 23.40864-23.40864c0-97.0752-78.70464-175.79008-175.79008-175.79008z" fill="#FACA8A" p-id="6589"></path><path d="M322.78528 485.07904c-105.51296 0-191.34464-85.83168-191.34464-191.3344 0-105.51296 85.83168-191.34464 191.34464-191.34464s191.34464 85.83168 191.34464 191.34464c0 8.59136-6.9632 15.54432-15.54432 15.54432-8.59136 0-15.54432-6.9632-15.54432-15.54432 0-88.36096-71.8848-160.24576-160.24576-160.24576s-160.24576 71.8848-160.24576 160.24576 71.8848 160.24576 160.24576 160.24576c8.59136 0 15.54432 6.9632 15.54432 15.54432-0.01024 8.59136-6.97344 15.54432-15.55456 15.54432z" fill="#6F6973" p-id="6590"></path><path d="M227.584 387.26656c-4.49536 0-8.96-1.93536-12.032-5.69344-20.23424-24.68864-31.37536-55.87968-31.37536-87.83872 0-76.43136 62.17728-138.60864 138.60864-138.60864 8.59136 0 15.54432 6.9632 15.54432 15.54432 0 8.59136-6.9632 15.54432-15.54432 15.54432-59.27936 0-107.50976 48.2304-107.50976 107.50976 0 24.79104 8.64256 48.97792 24.33024 68.11648 5.43744 6.63552 4.47488 16.4352-2.17088 21.88288a15.428608 15.428608 0 0 1-9.85088 3.54304z" fill="#FFFFFD" p-id="6591"></path><path d="M576.36864 682.76224h-0.01024c-6.06208 0-11.74528-2.6112-15.58528-7.14752L264.78592 326.0416c-4.9152-5.79584-6.00064-13.68064-2.816-20.54144 3.25632-7.02464 10.48576-11.56096 18.42176-11.56096H872.3456c7.936 0 15.16544 4.53632 18.41152 11.55072 3.18464 6.8608 2.10944 14.72512-2.80576 20.54144L591.9744 675.61472c-3.86048 4.54656-9.54368 7.14752-15.60576 7.14752z m8.09984-27.26912l0.03072 0.03072c-0.01024 0-0.02048-0.01024-0.03072-0.03072zM304.68096 325.03808l271.68768 320.88064 271.68768-320.88064H304.68096z" fill="#6F6973" p-id="6592"></path><path d="M576.36864 920.08448c-8.59136 0-15.54432-6.9632-15.54432-15.54432V661.87264c0-8.59136 6.9632-15.54432 15.54432-15.54432s15.54432 6.9632 15.54432 15.54432v242.66752c0 8.59136-6.9632 15.54432-15.54432 15.54432z" fill="#6F6973" p-id="6593"></path><path d="M676.70016 921.6H476.03712c-8.59136 0-15.54432-6.9632-15.54432-15.54432 0-8.59136 6.9632-15.54432 15.54432-15.54432h200.66304c8.58112 0 15.54432 6.9632 15.54432 15.54432 0 8.58112-6.9632 15.54432-15.54432 15.54432zM779.10016 443.25888h-407.8592c-8.59136 0-15.54432-6.9632-15.54432-15.54432s6.9632-15.54432 15.54432-15.54432h407.8592c8.58112 0 15.54432 6.9632 15.54432 15.54432s-6.9632 15.54432-15.54432 15.54432z" fill="#6F6973" p-id="6594"></path><path d="M596.09088 584.57088c-1.9968 0-4.02432-0.38912-5.98016-1.20832-7.92576-3.29728-11.6736-12.40064-8.36608-20.3264l167.58784-401.9712c3.29728-7.92576 12.43136-11.68384 20.33664-8.36608 7.92576 3.29728 11.6736 12.40064 8.37632 20.3264L610.44736 574.99648c-2.48832 5.96992-8.27392 9.5744-14.35648 9.5744z" fill="#6F6973" p-id="6595"></path></svg>